# xmcd
#
# Track frame offsets: 
#        150
#        12665
#        25568
#        39301
#        51295
#        62673
#        72045
#        82922
#        94847
#        106022
#        114747
#        124162
#        135707
#        147084
#        158319
#        170844
#        181535
#        192025
#        203203
#        214047
#        224497
#        235723
#        246543
#        257639
#        268551
#
# Disc length: 3721 seconds
#
# Revision: 0
# Processed by: cddbd v1.5.2PL0 Copyright (c) Steve Scherf et al.
# Submitted via: ExactAudioCopy v1.1
#
DISCID=590e8719
DTITLE=Patsy Cline - Walking After Midnight
DYEAR=2012
DGENRE=Country
TTITLE0=Crazy
TTITLE1=I Fall To Pieces
TTITLE2=She's Got You
TTITLE3=A Poor Man's Roses
TTITLE4=Dear God
TTITLE5=Love Me, Love Me, Honey Do
TTITLE6=Stop, Look And Listen
TTITLE7=Today, Tomorrow And Forever
TTITLE8=A Stranger In My Arms
TTITLE9=Ain't No Wheels On This Ship
TTITLE10=Come On In (And Make Yourself At Home)
TTITLE11=Crazy Dreams
TTITLE12=Cry Not For Me
TTITLE13=Don't Ever Leave Me Again
TTITLE14=Fingerprints
TTITLE15=Gotta Lot Of Rhythm
TTITLE16=He Will Do For You
TTITLE17=Hidin' Out
TTITLE18=Honky-Tonk Merry-Go-Round
TTITLE19=How Can I Face Tomorros
TTITLE20=Hungry For Love
TTITLE21=I Can See An Angel
TTITLE22=I Can't Forget
TTITLE23=I Cried All The Way To The Altar
TTITLE24=I Don't Wanna
EXTD=
EXTT0=
EXTT1=
EXTT2=
EXTT3=
EXTT4=
EXTT5=
EXTT6=
EXTT7=
EXTT8=
EXTT9=
EXTT10=
EXTT11=
EXTT12=
EXTT13=
EXTT14=
EXTT15=
EXTT16=
EXTT17=
EXTT18=
EXTT19=
EXTT20=
EXTT21=
EXTT22=
EXTT23=
EXTT24=
PLAYORDER=
